<svg viewBox="0 0 96 96" fill="none" stroke-linecap="round" stroke-linejoin="round" xmlns="http://www.w3.org/2000/svg">
  <rect x="22" y="78" width="52" height="8" rx="3" fill="#6f4b3f"/>
  <rect x="26" y="18" width="4" height="62" rx="2" fill="#b67a70"/>
  <rect x="26" y="26" width="42" height="3" rx="1.5" fill="#b67a70"/>
  <path d="M34 22 L66 22 L61 42 Q58 52 50 52 Q42 52 39 42 Z" fill="#f3efe4" stroke="#8b6d62" stroke-width="1.4"/>
  <path d="M39 29 L61 29 M40 34 L60 34 M42 39 L58 39" stroke="#c8b8a8" stroke-width="1.2"/>
  <ellipse cx="50" cy="52" rx="13" ry="2.5" fill="#d8f1f6" stroke="#8da7ad" stroke-width="1"/>
  <path d="M37 54 Q36 73 38 75 Q40 77 50 77 Q60 77 62 75 Q64 73 63 54 Z" fill="#eff7f8" stroke="#8da7ad" stroke-width="1.3"/>
  <path d="M38 65 Q50 60 62 65 L62 75 Q60 77 50 77 Q40 77 38 75 Z" fill="#4a2e24"/>
  <path d="M63 59 Q69 58 70 63 Q70 69 63 69" stroke="#8da7ad" stroke-width="1.4"/>
  <ellipse cx="50" cy="65" rx="11" ry="1.8" fill="#5b3a2c" opacity="0.55"/>
</svg>
