<svg viewBox="0 0 96 96" fill="none" stroke-linecap="round" stroke-linejoin="round" xmlns="http://www.w3.org/2000/svg">
  <rect x="18" y="12" width="60" height="8" rx="3" fill="#c5a46d"/>
  <rect x="16" y="18" width="64" height="38" rx="7" fill="#3eaec0" stroke="#225d69" stroke-width="1.8"/>
  <circle cx="28" cy="30" r="4.5" fill="#e3d3ab" stroke="#7d5f3a" stroke-width="1.2"/>
  <circle cx="38" cy="30" r="4.5" fill="#e3d3ab" stroke="#7d5f3a" stroke-width="1.2"/>
  <circle cx="52" cy="30" r="5.5" fill="#f2e8d0" stroke="#7d5f3a" stroke-width="1.2"/>
  <circle cx="52" cy="30" r="2.3" fill="#7d5f3a"/>
  <circle cx="66" cy="30" r="6.8" fill="#f6f2e6" stroke="#7d5f3a" stroke-width="1.4"/>
  <path d="M66 30 L69 27" stroke="#7d5f3a" stroke-width="1.4"/>
  <circle cx="66" cy="30" r="1" fill="#7d5f3a"/>
  <rect x="24" y="56" width="48" height="22" rx="4" fill="#2f9daf" stroke="#225d69" stroke-width="1.6"/>
  <path d="M52 56 L58 46" stroke="#7d5f3a" stroke-width="2.2"/>
  <path d="M58 46 Q62 43 66 47" stroke="#7d5f3a" stroke-width="2"/>
  <path d="M30 69 Q30 61 38 61 Q46 61 46 69" fill="#f4f9fb" stroke="#7ea0aa" stroke-width="1.3"/>
  <path d="M32 69 Q33 64 38 64 Q43 64 44 69 Z" fill="#5f3a2b"/>
  <path d="M44 66 Q47 66 47 69" stroke="#7ea0aa" stroke-width="1.2"/>
  <rect x="20" y="78" width="56" height="7" rx="3" fill="#6f5d3a"/>
</svg>
